<svg width="20" height="20" viewBox="0 0 20 20" fill="none" xmlns="http://www.w3.org/2000/svg">
<path d="M15.4994 16.6673H4.83268C4.4645 16.6673 4.16602 16.3689 4.16602 16.0007V4.00065C4.16602 3.63246 4.4645 3.33398 4.83268 3.33398H15.4994C15.8676 3.33398 16.166 3.63246 16.166 4.00065V16.0007C16.166 16.3689 15.8676 16.6673 15.4994 16.6673ZM14.8327 15.334V4.66732H5.49935V15.334H14.8327ZM8.16602 6.00065V7.33398C8.16602 8.43855 9.06143 9.33398 10.166 9.33398C11.2706 9.33398 12.166 8.43855 12.166 7.33398V6.00065H13.4994V7.33398C13.4994 9.17492 12.007 10.6673 10.166 10.6673C8.32507 10.6673 6.83268 9.17492 6.83268 7.33398V6.00065H8.16602Z" fill="#392B30"/>
</svg>
