<svg width="84" height="40" viewBox="0 0 84 40" fill="none" xmlns="http://www.w3.org/2000/svg">
<path fill-rule="evenodd" clip-rule="evenodd" d="M14.4399 24.1014H25.0476L23.6364 34.5717H0.621094L1.38137 0H13.1658L14.1967 23.9038C14.1967 24.052 14.294 24.1014 14.4399 24.1014ZM41.0185 24.1014L52.1303 23.9224L53.4608 34.5717H26.5182L30.6524 0H50.2296L50.9934 10.4703H41.0185C40.4832 10.4703 40.0938 10.8654 40.0938 11.4086C40.0938 11.9519 40.4832 12.347 41.0185 12.347H46.048H50.9934L51.9401 22.2246H41.0185C40.4832 22.2246 40.0938 22.6198 40.0938 23.1629C40.0938 23.7062 40.4832 24.1014 41.0185 24.1014ZM68.9976 21.8846L75.5094 22.4515C80.0535 22.8396 83.3797 25.3763 83.3797 28.2116C83.3797 31.7333 78.8356 34.5683 73.4014 34.5683H55.412L56.0198 26.3911L69.6536 27.4954H69.7941C70.6374 27.4954 70.6843 26.988 70.6843 26.9282C70.6843 26.7194 70.4968 26.4208 69.8878 26.3911L63.2823 25.7942C58.8318 25.4063 56.8391 22.6058 56.8391 19.7706C56.8391 16.2489 61.0141 13.6774 66.5422 13.6774H81.0966L82.809 20.7505H69.232C69.1851 20.7505 69.1499 20.743 69.1149 20.7357C69.0797 20.7281 69.0445 20.7205 68.9976 20.7205C68.3419 20.7205 68.2482 21.2877 68.2482 21.3175C68.2482 21.5265 68.4355 21.7951 68.9976 21.8846ZM65.6942 35.8219H71.4524L71.8636 40H65.283L65.6942 35.8219ZM73.0163 5.19469L69.1909 4.85898C68.8607 4.80598 68.7506 4.64694 68.7506 4.52327C68.7506 4.5056 68.8056 4.16989 69.1909 4.16989C69.2185 4.16989 69.2392 4.17431 69.2597 4.17873C69.2805 4.18313 69.301 4.18754 69.3285 4.18754H77.3046L76.2988 0H67.7484C64.5009 0 62.0482 1.52247 62.0482 3.60742C62.0482 5.28598 63.2189 6.94393 65.8334 7.17362L69.7138 7.52701C70.0716 7.54466 70.1817 7.72135 70.1817 7.84504C70.1817 7.88037 70.1542 8.18074 69.6588 8.18074H69.5762L61.567 7.52701L61.2099 12.3683H71.7779C74.9703 12.3683 77.6398 10.6898 77.6398 8.60481C77.6398 6.92625 75.6858 5.42438 73.0163 5.19469Z" fill="#392B30"/>
</svg>
