<svg width="20" height="20" viewBox="0 0 20 20" fill="none" xmlns="http://www.w3.org/2000/svg">
<path d="M10.3792 15.5474L13.7963 12.1303C15.6835 10.2431 15.6835 7.18332 13.7963 5.29612C11.9091 3.40891 8.84934 3.40891 6.96213 5.29612C5.07493 7.18332 5.07493 10.2431 6.96213 12.1303L10.3792 15.5474ZM10.3792 17.5L5.98582 13.1066C3.55941 10.6802 3.55941 6.74622 5.98582 4.31981C8.41223 1.8934 12.3462 1.8934 14.7727 4.31981C17.1991 6.74622 17.1991 10.6802 14.7727 13.1066L10.3792 17.5ZM10.3792 10.0939C11.1418 10.0939 11.7599 9.47578 11.7599 8.71321C11.7599 7.95066 11.1418 7.3325 10.3792 7.3325C9.61666 7.3325 8.99851 7.95066 8.99851 8.71321C8.99851 9.47578 9.61666 10.0939 10.3792 10.0939ZM10.3792 11.4746C8.85413 11.4746 7.6178 10.2383 7.6178 8.71321C7.6178 7.18812 8.85413 5.95178 10.3792 5.95178C11.9043 5.95178 13.1407 7.18812 13.1407 8.71321C13.1407 10.2383 11.9043 11.4746 10.3792 11.4746Z" fill="#392B30"/>
</svg>
